<?xml version="1.0" encoding="utf-8"?>
<!-- Generator: Adobe Illustrator 22.1.0, SVG Export Plug-In . SVG Version: 6.00 Build 0)  -->
<svg version="1.1" id="close-icon" xmlns="http://www.w3.org/2000/svg" xmlns:xlink="http://www.w3.org/1999/xlink" x="0px" y="0px"
	 viewBox="0 0 24 24" style="enable-background:new 0 0 24 24;" xml:space="preserve">
<path d="M12.7,12l9.1-9.1c0.2-0.2,0.2-0.5,0-0.7s-0.5-0.2-0.7,0L12,11.3L2.9,2.2C2.7,2,2.4,2,2.2,2.2S2,2.7,2.2,2.9l9.1,9.1
	l-9.1,9.1c-0.2,0.2-0.2,0.5,0,0.7s0.5,0.2,0.7,0l9.1-9.1l9.1,9.1c0.2,0.2,0.5,0.2,0.7,0s0.2-0.5,0-0.7L12.7,12z"/>
</svg>
