<?xml version="1.0" encoding="utf-8"?>
<!-- Generator: Adobe Illustrator 22.1.0, SVG Export Plug-In . SVG Version: 6.00 Build 0)  -->
<svg version="1.1" id="link-icon" xmlns="http://www.w3.org/2000/svg" xmlns:xlink="http://www.w3.org/1999/xlink" x="0px" y="0px"
	 viewBox="0 0 24 24" style="enable-background:new 0 0 24 24;" xml:space="preserve">
<path id="_x3C_Path_x3E_" d="M16.3,13.4c-1.6,1.6-4.2,1.6-5.7,0c-0.3-0.3-0.3-0.7,0-1c0.3-0.3,0.7-0.3,1,0c1.1,1.1,2.8,1.1,3.8,0
	L18.9,9c1.1-1.1,1.1-2.8,0-3.8c-1.1-1.1-2.8-1.1-3.8,0l-3.5,3.5c-0.3,0.3-0.7,0.3-1,0c-0.3-0.3-0.3-0.7,0-1c0,0,0,0,0,0l3.5-3.5
	c1.6-1.6,4.2-1.6,5.7,0c1.6,1.6,1.6,4.2,0,5.7L16.3,13.4z M9.9,19.8c-1.6,1.6-4.2,1.6-5.7,0c-1.6-1.6-1.6-4.2,0-5.7l3.5-3.5
	c1.6-1.6,4.2-1.6,5.7,0c0.3,0.3,0.3,0.7,0,1c-0.3,0.3-0.7,0.3-1,0c-1.1-1.1-2.8-1.1-3.8,0L5.1,15c-1.1,1.1-1.1,2.8,0,3.8
	c1.1,1.1,2.8,1.1,3.8,0l3.5-3.5c0.3-0.3,0.7-0.3,1,0c0.3,0.3,0.3,0.7,0,1c0,0,0,0,0,0L9.9,19.8z"/>
</svg>
