<?xml version="1.0" encoding="utf-8"?>
<!-- Generator: Adobe Illustrator 22.1.0, SVG Export Plug-In . SVG Version: 6.00 Build 0)  -->
<svg version="1.1" id="share-icon" xmlns="http://www.w3.org/2000/svg" xmlns:xlink="http://www.w3.org/1999/xlink" x="0px" y="0px"
	 viewBox="0 0 24 24" style="enable-background:new 0 0 24 24;" xml:space="preserve">
<path id="_x3C_Path_x3E_" d="M17.1,16.9c1,0,1.8,0.8,1.8,1.8c0,1-0.8,1.8-1.8,1.8c-1,0-1.8-0.8-1.8-1.8
	C15.3,17.7,16.1,16.9,17.1,16.9 M6.3,10.2c1,0,1.8,0.8,1.8,1.8s-0.8,1.8-1.8,1.8S4.5,13,4.5,12S5.3,10.2,6.3,10.2 M17.1,3.5
	c1,0,1.8,0.8,1.8,1.8s-0.8,1.8-1.8,1.8c-1,0-1.8-0.8-1.8-1.8S16.1,3.5,17.1,3.5 M17.1,2c-1.8,0-3.3,1.5-3.3,3.3c0,0.4,0.1,0.7,0.2,1
	L8.4,9.4C7.9,9,7.1,8.7,6.3,8.7C4.5,8.7,3,10.2,3,12s1.5,3.3,3.3,3.3c0.8,0,1.5-0.3,2.1-0.7l5.5,3.1c-0.1,0.3-0.2,0.7-0.2,1
	c0,1.8,1.5,3.3,3.3,3.3s3.3-1.5,3.3-3.3c0-1.8-1.5-3.3-3.3-3.3c-0.9,0-1.8,0.4-2.4,1l-5.4-3c0.2-0.4,0.3-0.9,0.3-1.3
	c0-0.5-0.1-0.9-0.3-1.3l5.4-3c0.6,0.6,1.4,1,2.4,1c1.8,0,3.3-1.5,3.3-3.3S18.9,2,17.1,2"/>
</svg>
