<?xml version="1.0" encoding="utf-8"?>
<!-- Generator: Adobe Illustrator 22.1.0, SVG Export Plug-In . SVG Version: 6.00 Build 0)  -->
<svg version="1.1" id="submit-icon" xmlns="http://www.w3.org/2000/svg" xmlns:xlink="http://www.w3.org/1999/xlink" x="0px"
	 y="0px" viewBox="0 0 24 24" style="enable-background:new 0 0 24 24;" xml:space="preserve">
<path id="_x3C_Path_x3E_" d="M6.341343,12.230744h5.946975c0.272681,0,0.493839-0.221158,0.493839-0.493839
	s-0.221158-0.493839-0.493839-0.493839H6.341343L3.48646,5.400538l16.633078,6.336367L3.48646,18.073273L6.341343,12.230744z
	 M21.98526,11.857237c0.00214-0.008559,0.003868-0.017119,0.005598-0.025844c0.001398-0.007325,0.002962-0.014733,0.004114-0.022141
	c0.001152-0.008231,0.001976-0.016461,0.002798-0.024775c0.00066-0.007901,0.001564-0.015638,0.001894-0.023458
	c0.000412-0.007983,0.000328-0.016049,0.000328-0.024116s0.000084-0.016132-0.000328-0.024116
	c-0.00033-0.007819-0.001234-0.015556-0.001894-0.023458c-0.000822-0.008313-0.001646-0.016543-0.002798-0.024775
	c-0.001152-0.007407-0.002716-0.014815-0.004114-0.022141c-0.00173-0.008724-0.003458-0.017284-0.005598-0.025844
	c-0.001728-0.006914-0.003868-0.013745-0.005844-0.020577c-0.002716-0.008971-0.005432-0.017942-0.008642-0.02675
	c-0.000986-0.002633-0.001646-0.005432-0.002716-0.008148c-0.00148-0.004033-0.003538-0.007654-0.005102-0.011605
	c-0.003456-0.008395-0.006996-0.016625-0.010864-0.024857c-0.003374-0.00716-0.006996-0.014074-0.0107-0.020988
	c-0.003704-0.006996-0.007654-0.013828-0.011604-0.020659c-0.004446-0.007407-0.009054-0.01465-0.013828-0.021811
	c-0.004034-0.005926-0.00823-0.011851-0.012592-0.017613c-0.005186-0.00716-0.010618-0.014156-0.016214-0.020905
	c-0.00461-0.005679-0.009302-0.011029-0.01424-0.016461c-0.00576-0.00642-0.011686-0.012757-0.01786-0.018848
	c-0.005184-0.005267-0.0107-0.01037-0.016214-0.015473c-0.006254-0.005597-0.012592-0.011111-0.019094-0.016543
	c-0.005926-0.004774-0.011934-0.009383-0.018024-0.013992c-0.006832-0.005103-0.013828-0.010041-0.020906-0.014733
	c-0.00609-0.004115-0.012264-0.007983-0.018602-0.011852c-0.0079-0.004773-0.015966-0.0093-0.024115-0.013662
	c-0.005762-0.003045-0.011606-0.006008-0.017532-0.008889c-0.009464-0.004527-0.019012-0.008642-0.028643-0.012593
	c-0.00321-0.001234-0.006172-0.002963-0.009464-0.004115L2.66965,4.032521C2.480345,3.960092,2.265854,4.011122,2.129143,4.16092
	C1.992514,4.310553,1.961156,4.528583,2.050129,4.710727l3.433251,7.026178l-3.433251,7.026177
	c-0.088973,0.182144-0.057615,0.400175,0.079014,0.549809c0.095393,0.104446,0.228647,0.160826,0.364783,0.160826
	c0.059014,0,0.118439-0.010534,0.175725-0.032429l19.012806-7.242972c0.009876-0.003704,0.019094-0.008231,0.028561-0.012593
	c0.004196-0.001811,0.008394-0.003457,0.01251-0.005432c0.01967-0.009547,0.038273-0.020412,0.056133-0.032264
	c0.00362-0.002387,0.007078-0.004939,0.010616-0.00749c0.015968-0.011111,0.031031-0.023129,0.045351-0.035886
	c0.002634-0.002469,0.005432-0.004609,0.008148-0.007078c0.015886-0.014815,0.030537-0.030701,0.044199-0.047326
	c0.00321-0.003951,0.006338-0.008148,0.009466-0.012264c0.012674-0.016543,0.024691-0.033663,0.035145-0.051688
	c0.000822-0.001482,0.001892-0.002881,0.002798-0.00428c0.01144-0.020082,0.020988-0.041071,0.029465-0.06247
	c0.000906-0.002387,0.002388-0.004445,0.00321-0.006831c0.00107-0.002716,0.00173-0.005515,0.002716-0.008149
	c0.00321-0.008806,0.005926-0.017777,0.008642-0.02675C21.981392,11.870982,21.983532,11.864151,21.98526,11.857237z"/>
</svg>
