<?xml version="1.0" encoding="UTF-8"?>
<svg width="24px" height="24px" viewBox="0 0 24 24" version="1.1" xmlns="http://www.w3.org/2000/svg" xmlns:xlink="http://www.w3.org/1999/xlink">
    <!-- Generator: Sketch 52.4 (67378) - http://www.bohemiancoding.com/sketch -->
    <title>icon-submit</title>
    <desc>Created with Sketch.</desc>
    <g id="style-guide" stroke="none" stroke-width="1" fill="none" fill-rule="evenodd">
        <g id="discussify_style-guide_02-colors-03-icons" transform="translate(-500.000000, -1337.000000)">
            <g id="iconography" transform="translate(342.000000, 1153.000000)">
                <g id="icons-24px" transform="translate(0.000000, 184.000000)">
                    <g id="icon-submit" transform="translate(158.000000, 0.000000)">
                        <rect id="icon-submit_BG" x="0" y="0" width="24" height="24"></rect>
                        <path d="M6.34134356,12.2307441 L12.2883184,12.2307441 C12.5609999,12.2307441 12.7821575,12.0095865 12.7821575,11.736905 C12.7821575,11.4642235 12.5609999,11.2430659 12.2883184,11.2430659 L6.34134356,11.2430659 L3.48645981,5.40053802 L20.1195364,11.736905 L3.48645981,18.073272 L6.34134356,12.2307441 Z M21.9852604,11.8572371 C21.9874004,11.8486773 21.9891288,11.8401174 21.9908573,11.8313929 C21.9922565,11.8240676 21.9938203,11.81666 21.9949726,11.8092524 C21.9961249,11.8010218 21.9969479,11.7927911 21.997771,11.7844782 C21.9984295,11.7765768 21.9993348,11.7688399 21.9996641,11.7610208 C22.0000756,11.7530371 21.9999933,11.7449711 21.9999933,11.736905 C21.9999933,11.728839 22.0000756,11.7207729 21.9996641,11.7127892 C21.9993348,11.7049701 21.9984295,11.6972333 21.997771,11.6893319 C21.9969479,11.6810189 21.9961249,11.6727882 21.9949726,11.6645576 C21.9938203,11.65715 21.9922565,11.6497424 21.9908573,11.6424171 C21.9891288,11.6336927 21.9874004,11.6251328 21.9852604,11.6165729 C21.983532,11.6096592 21.981392,11.6028277 21.9794167,11.5959963 C21.9767005,11.5870249 21.9739844,11.5780534 21.9707745,11.5692467 C21.9697868,11.5666128 21.9691283,11.5638144 21.9680584,11.5610983 C21.9665768,11.5570653 21.9645192,11.5534438 21.9629553,11.5494931 C21.9594985,11.5410978 21.9559593,11.5328672 21.9520909,11.5246365 C21.9487163,11.5174759 21.9450948,11.5105621 21.941391,11.5036484 C21.9376872,11.4966523 21.9337365,11.4898209 21.9297858,11.4829894 C21.9253413,11.4755818 21.9207321,11.4683389 21.9159583,11.4611782 C21.9119253,11.4552521 21.9077277,11.4493261 21.9033654,11.4435646 C21.8981801,11.4364039 21.8927479,11.4294079 21.8871511,11.4226588 C21.8825419,11.4169796 21.8778504,11.4116297 21.872912,11.4061974 C21.8671506,11.3997775 21.8612245,11.3934399 21.8550515,11.3873493 C21.8498662,11.3820816 21.8443517,11.3769786 21.8388371,11.3718756 C21.8325818,11.3662788 21.8262442,11.3607643 21.819742,11.355332 C21.8138159,11.3505582 21.8078076,11.3459491 21.8017169,11.3413399 C21.7948854,11.3362369 21.7878894,11.3312985 21.780811,11.326607 C21.7747204,11.3224917 21.7685474,11.3186233 21.7622098,11.3147549 C21.7543083,11.3099811 21.7462423,11.3054543 21.738094,11.301092 C21.7323325,11.2980467 21.7264887,11.2950837 21.7205627,11.2922029 C21.7110974,11.2876761 21.7015499,11.2835607 21.69192,11.27961 C21.68871,11.2783754 21.685747,11.276647 21.6824547,11.2754947 L2.66964996,4.03252145 C2.48034498,3.96009172 2.2658542,4.01112176 2.12914308,4.16091961 C1.99251427,4.31055285 1.96115548,4.52858281 2.05012883,4.71072713 L5.48338045,11.736905 L2.05012883,18.7630829 C1.96115548,18.9452272 1.99251427,19.1632572 2.12914308,19.3128904 C2.22453633,19.4173374 2.35779058,19.4737174 2.49392555,19.4737174 C2.55293932,19.4737174 2.61236462,19.4631821 2.66964996,19.4412886 L21.6824547,12.1983153 C21.6923315,12.1946115 21.7015499,12.1900847 21.7110151,12.1857224 C21.7152127,12.1839117 21.7194104,12.1822656 21.7235257,12.1802902 C21.743197,12.1707427 21.7617982,12.1598782 21.7796587,12.1480261 C21.7832802,12.1456392 21.7867371,12.1430877 21.7902763,12.1405362 C21.8062437,12.1294248 21.8213058,12.117408 21.8356272,12.1046505 C21.838261,12.1021813 21.8410594,12.1000414 21.8437755,12.0975722 C21.8596607,12.082757 21.8743112,12.0668718 21.8879741,12.0502459 C21.8911841,12.0462952 21.8943117,12.0420976 21.8974394,12.0379823 C21.9101146,12.0214386 21.9221313,12.0043189 21.9325842,11.9862938 C21.9334073,11.9848122 21.9344773,11.983413 21.9353827,11.9820138 C21.9468233,11.961931 21.9563708,11.9409429 21.9648484,11.9195432 C21.9657538,11.9171563 21.9672353,11.9150986 21.9680584,11.9127117 C21.9691283,11.9099956 21.9697868,11.9071972 21.9707745,11.9045634 C21.9739844,11.8957566 21.9767005,11.8867852 21.9794167,11.8778138 C21.981392,11.8709823 21.983532,11.8641509 21.9852604,11.8572371 Z" fill="#000000"></path>
                    </g>
                </g>
            </g>
        </g>
    </g>
</svg>