<?xml version="1.0" encoding="UTF-8"?>
<svg width="12px" height="11px" viewBox="0 0 12 11" version="1.1" xmlns="http://www.w3.org/2000/svg" xmlns:xlink="http://www.w3.org/1999/xlink">
    <!-- Generator: Sketch 52.4 (67378) - http://www.bohemiancoding.com/sketch -->
    <title>icon-retry</title>
    <desc>Created with Sketch.</desc>
    <g id="style-guide" stroke="none" stroke-width="1" fill="none" fill-rule="evenodd">
        <g id="discussify_style-guide_02-colors-03-icons" transform="translate(-1443.000000, -1342.000000)">
            <g id="iconography" transform="translate(342.000000, 1153.000000)">
                <g id="icons-16px" transform="translate(640.000000, 187.000000)">
                    <g id="icon-retry" transform="translate(459.000000, 0.000000)">
                        <rect id="icon-retry_BG" fill-rule="nonzero" x="0" y="0" width="16" height="16"></rect>
                        <path d="M3,9.65592963 L3,11.5 C3,11.7761424 2.77614237,12 2.5,12 C2.22385763,12 2,11.7761424 2,11.5 L2,8.5 C2,8.29568948 2.12254264,8.12000033 2.29813803,8.04242244 C2.36733738,8.01306546 2.43430968,7.99983558 2.50133269,8 L5.5,8 C5.77614237,8 6,8.22385763 6,8.5 C6,8.77614237 5.77614237,9 5.5,9 L3.76213519,9 L5.17364349,10.3265352 C6.14455867,11.2979371 7.54595181,11.7032915 8.88551606,11.4001982 C10.2250803,11.0971049 11.3154739,10.1279523 11.7736435,8.83320188 C11.8657635,8.57287803 12.1514758,8.43652192 12.4117996,8.52864197 C12.6721235,8.62076203 12.8084796,8.90647427 12.7163595,9.16679812 C12.1436475,10.7852361 10.7806556,11.9966769 9.10620025,12.3755435 C7.43174494,12.7544102 5.68000351,12.2477172 4.47761322,11.0443765 L3,9.65592963 Z M13,5.34863919 L13,3.5 C13,3.22385763 13.2238576,3 13.5,3 C13.7761424,3 14,3.22385763 14,3.5 L14,6.5 C14,6.77614237 13.7761424,7 13.5,7 L13.4962744,7 C13.4954506,7.00000202 13.4946279,7.00000202 13.4938051,7 L10.5,7 C10.2238576,7 10,6.77614237 10,6.5 C10,6.22385763 10.2238576,6 10.5,6 L12.2330026,6 L10.8214943,4.67346478 C9.85057911,3.70206289 8.44918597,3.29670847 7.10962172,3.59980179 C5.77005747,3.90289512 4.6796639,4.87204774 4.22149429,6.16679812 C4.12937423,6.42712197 3.843662,6.56347808 3.58333815,6.47135803 C3.3230143,6.37923797 3.18665818,6.09352573 3.27877824,5.83320188 C3.85149026,4.21476391 5.21448222,3.00332313 6.88893753,2.62445647 C8.56339283,2.24558982 10.3151343,2.75228285 11.5175246,3.95562347 L13,5.34863919 Z" fill="#000000"></path>
                    </g>
                </g>
            </g>
        </g>
    </g>
</svg>