<?xml version="1.0" encoding="UTF-8"?>
<svg width="14px" height="14px" viewBox="0 0 14 14" version="1.1" xmlns="http://www.w3.org/2000/svg" xmlns:xlink="http://www.w3.org/1999/xlink">
    <!-- Generator: Sketch 52.4 (67378) - http://www.bohemiancoding.com/sketch -->
    <title>icon-chevron</title>
    <desc>Created with Sketch.</desc>
    <g id="style-guide" stroke="none" stroke-width="1" fill="none" fill-rule="evenodd" opacity="0.8">
        <g id="discussify_style-guide_02-colors-03-icons" transform="translate(-1396.000000, -1341.000000)">
            <g id="iconography" transform="translate(342.000000, 1153.000000)">
                <g id="icons-16px" transform="translate(640.000000, 187.000000)">
                    <g id="icon-chevron" transform="translate(413.000000, 0.000000)">
                        <rect id="icon-chevron_BG" fill-rule="nonzero" x="0" y="0" width="16" height="16"></rect>
                        <path d="M8,14 C11.3137085,14 14,11.3137085 14,8 C14,4.6862915 11.3137085,2 8,2 C4.6862915,2 2,4.6862915 2,8 C2,11.3137085 4.6862915,14 8,14 Z M8,15 C4.13400675,15 1,11.8659932 1,8 C1,4.13400675 4.13400675,1 8,1 C11.8659932,1 15,4.13400675 15,8 C15,11.8659932 11.8659932,15 8,15 Z M8,9.29289322 L5.35355339,6.64644661 C5.15829124,6.45118446 4.84170876,6.45118446 4.64644661,6.64644661 C4.45118446,6.84170876 4.45118446,7.15829124 4.64644661,7.35355339 L7.64644661,10.3535534 C7.84170876,10.5488155 8.15829124,10.5488155 8.35355339,10.3535534 L11.3535534,7.35355339 C11.5488155,7.15829124 11.5488155,6.84170876 11.3535534,6.64644661 C11.1582912,6.45118446 10.8417088,6.45118446 10.6464466,6.64644661 L8,9.29289322 Z" fill="#000000"></path>
                    </g>
                </g>
            </g>
        </g>
    </g>
</svg>