<?xml version="1.0" encoding="UTF-8"?>
<svg width="24px" height="24px" viewBox="0 0 24 24" version="1.1" xmlns="http://www.w3.org/2000/svg" xmlns:xlink="http://www.w3.org/1999/xlink">
    <!-- Generator: Sketch 50.2 (55047) - http://www.bohemiancoding.com/sketch -->
    <title>icon-github</title>
    <desc>Created with Sketch.</desc>
    <defs></defs>
    <g id="Page-1" stroke="none" stroke-width="1" fill="none" fill-rule="evenodd">
        <g id="discussify_style-guide" transform="translate(-821.000000, -3445.000000)">
            <g id="iconography" transform="translate(343.000000, 3261.000000)">
                <g id="icons-24px" transform="translate(2.000000, 184.000000)">
                    <g id="icon-github" transform="translate(476.000000, 0.000000)">
                        <rect id="icon-github_BG" x="0" y="0" width="24" height="24"></rect>
                        <path d="M4.10725398,10.6697709 C3.44806949,14.7656746 5.8998518,18.402709 9.47096776,19.590521 C9.87095835,19.6634793 10.0168749,19.4164451 10.0168749,19.2052501 C10.0168749,19.0158145 10.0098351,18.3841494 10.0059952,17.7160051 C7.78140752,18.1998338 7.31101859,16.7733073 7.31101859,16.7733073 C6.94686716,15.8491691 6.42271949,15.6027749 6.42271949,15.6027749 C5.6956966,15.1067865 6.47839818,15.1170263 6.47839818,15.1170263 C7.2809393,15.172705 7.70396934,15.9413269 7.70396934,15.9413269 C8.41755255,17.1636981 9.57720526,16.8097865 10.0322346,16.6049913 C10.1051928,16.0891634 10.311908,15.7365317 10.5397426,15.5368564 C8.76378441,15.3352612 6.89566837,14.6479173 6.89566837,11.5830295 C6.89566837,10.70881 7.20798102,9.9958668 7.718689,9.43587998 C7.63741091,9.23300475 7.3615774,8.41894391 7.79804713,7.31752983 C7.79804713,7.31752983 8.46875135,7.10313487 9.99831536,8.13799052 C10.6357404,7.96007471 11.3198843,7.87175679 12.0001882,7.86919685 C12.6798523,7.87175679 13.3639962,7.96071469 14.0027011,8.13927049 C15.5290652,7.10313487 16.2010494,7.3188098 16.2010494,7.3188098 C16.6387991,8.42086387 16.3629656,9.23364474 16.2810475,9.43587998 C16.7936754,9.9958668 17.1034282,10.70881 17.1034282,11.5830295 C17.1034282,14.6562371 15.2321122,15.3327012 13.4503941,15.5310966 C13.7383873,15.7787707 13.9931014,16.2657993 13.9931014,17.0113817 C13.9931014,18.0807966 13.9822216,18.9428563 13.9822216,19.2065301 C13.9822216,19.4190051 14.1274982,19.6685992 14.5332486,19.590521 C17.7094939,18.5313459 20,15.5330165 20,11.9996597 C20,7.13833405 15.6621821,3.28882463 10.6459801,4.11120528 C7.28733915,4.66159233 4.64804126,7.30921002 4.10725398,10.6697709" fill="#000000"></path>
                    </g>
                </g>
            </g>
        </g>
    </g>
</svg>