<?xml version="1.0" encoding="UTF-8"?>
<svg width="16px" height="16px" viewBox="0 0 16 16" version="1.1" xmlns="http://www.w3.org/2000/svg" xmlns:xlink="http://www.w3.org/1999/xlink">
    <!-- Generator: Sketch 52.4 (67378) - http://www.bohemiancoding.com/sketch -->
    <title>icon-reply</title>
    <desc>Created with Sketch.</desc>
    <g id="style-guide" stroke="none" stroke-width="1" fill="none" fill-rule="evenodd">
        <g id="discussify_style-guide_02-colors-03-icons" transform="translate(-1074.000000, -1340.000000)">
            <g id="iconography" transform="translate(342.000000, 1153.000000)">
                <g id="icons-16px" transform="translate(640.000000, 187.000000)">
                    <g id="icon-reply" transform="translate(92.000000, 0.000000)">
                        <rect id="icon-reply_BG" x="0" y="0" width="16" height="16"></rect>
                        <path d="M6.11172104,3.60202483 L6.11172104,4.73134056 C6.11172104,4.96470406 6.2694612,5.16840705 6.49541333,5.22670531 C9.00220302,5.86099721 12.4000115,7.28129285 14.1905755,10.1701251 C10.7644591,8.15798278 6.92173811,8.29588714 6.5967081,8.31105833 C6.32471289,8.32520674 6.11137998,8.55004711 6.11172104,8.82244658 L6.11172104,9.94647796 L2.30140072,6.77689357 L6.11172104,3.60202483 Z M6.55936205,2.00393654 C6.46301265,2.0174031 6.37246127,2.05797323 6.29828076,2.12104445 L1.18238344,6.38261323 C0.966151516,6.56449698 0.938184611,6.88701251 1.1199695,7.10332974 C1.13889832,7.12583082 1.15970296,7.14679774 1.18238344,7.1657191 L6.29828076,11.4272879 C6.51655904,11.6067852 6.8390311,11.57542 7.01842857,11.3573982 C7.09243855,11.2673938 7.13353626,11.1548884 7.1349005,11.0384623 L7.1349005,9.33911918 C8.28836481,9.3500288 12.2557432,9.56958482 15.1550927,12.1038545 C15.3696193,12.2879543 15.692603,12.2632372 15.8766048,12.0487951 C15.9920535,11.9143 16.0297406,11.7295183 15.9758532,11.5605898 C14.5432314,7.1483319 10.2371806,5.19534017 7.1349005,4.34779937 L7.1349005,2.51532479 C7.13711739,2.23286802 6.90980102,2.00223191 6.62723296,2.0000159 C6.60455248,1.99984544 6.581872,2.00103868 6.55936205,2.00393654 Z" fill="#000000" transform="translate(8.500000, 7.113636) scale(-1, 1) translate(-8.500000, -7.113636) "></path>
                    </g>
                </g>
            </g>
        </g>
    </g>
</svg>