<?xml version="1.0" encoding="UTF-8"?>
<svg width="16px" height="10px" viewBox="0 0 16 10" version="1.1" xmlns="http://www.w3.org/2000/svg" xmlns:xlink="http://www.w3.org/1999/xlink">
    <!-- Generator: Sketch 52.4 (67378) - http://www.bohemiancoding.com/sketch -->
    <title>icon-markdown</title>
    <desc>Created with Sketch.</desc>
    <g id="style-guide" stroke="none" stroke-width="1" fill="none" fill-rule="evenodd">
        <g id="discussify_style-guide_02-colors-03-icons" transform="translate(-1349.000000, -1343.000000)">
            <g id="iconography" transform="translate(342.000000, 1153.000000)">
                <g id="icons-16px" transform="translate(640.000000, 187.000000)">
                    <g id="icon-markdown" transform="translate(367.000000, 0.000000)">
                        <rect id="icon-markdown_BG" x="0" y="0" width="16" height="16"></rect>
                        <path d="M11.9857969,11.4980469 L9.5,8 L11,8 L11,5 L13,5 L13,8 L14.5,8 L11.9857969,11.4980469 Z M9,10.9980469 L7,11 L7,8 L5.5,9.92307812 L4,8 L4,11 L2,11 L2,5 L4,5 L5.5,7 L7,5 L9,4.99804688 L9,10.9980469 Z M14.8461562,3 L1.15384375,3 C0.517609375,3 0,3.51760937 0,4.15384375 L0,11.8461562 C0,12.4824219 0.517609375,13 1.15384375,13 L14.8461562,13 C15.4824219,13 16,12.4824219 16,11.8461562 L16,4.15384375 C16,3.51760937 15.4824219,3 14.8461562,3 Z" fill="#000000"></path>
                    </g>
                </g>
            </g>
        </g>
    </g>
</svg>