<?xml version="1.0" encoding="UTF-8"?>
<svg width="24px" height="24px" viewBox="0 0 24 24" version="1.1" xmlns="http://www.w3.org/2000/svg" xmlns:xlink="http://www.w3.org/1999/xlink">
    <!-- Generator: Sketch 52.3 (67297) - http://www.bohemiancoding.com/sketch -->
    <title>icon-twitter</title>
    <desc>Created with Sketch.</desc>
    <g id="Page-1" stroke="none" stroke-width="1" fill="none" fill-rule="evenodd">
        <g id="discussify_style-guide" transform="translate(-710.000000, -3515.000000)">
            <g id="iconography" transform="translate(342.000000, 3331.000000)">
                <g id="icons-24px" transform="translate(0.000000, 184.000000)">
                    <g id="icon-twitter" transform="translate(368.000000, 0.000000)">
                        <rect id="icon-twitter_BG" x="0" y="0" width="24" height="24"></rect>
                        <path d="M20,7.53984 C19.41184,7.80096 18.77824,7.97696 18.1152,8.05696 C18.79296,7.65056 19.31328,7.00672 19.55776,6.24128 C18.92352,6.61696 18.22208,6.8896 17.47264,7.03616 C16.87552,6.39872 16.02176,6 15.07712,6 C13.26528,6 11.79584,7.47072 11.79584,9.2832 C11.79584,9.54048 11.82336,9.79072 11.87968,10.03072 C9.152,9.89312 6.73408,8.58816 5.1136,6.59968 C4.83136,7.08672 4.66944,7.65056 4.66944,8.25216 C4.66944,9.38944 5.24928,10.39552 6.12992,10.98432 C5.59232,10.96768 5.08544,10.8192 4.64256,10.57472 L4.64256,10.61504 C4.64256,12.20608 5.77344,13.5328 7.2768,13.8336 C7.00096,13.91104 6.71104,13.94944 6.41152,13.94944 C6.19968,13.94944 5.9936,13.93024 5.79392,13.89184 C6.2112,15.19488 7.42336,16.14528 8.85952,16.17088 C7.73632,17.05088 6.32064,17.57568 4.78336,17.57568 C4.5184,17.57568 4.256,17.56096 4,17.53088 C5.4528,18.46144 7.17824,19.00544 9.03168,19.00544 C15.07072,19.00544 18.3712,14.00384 18.3712,9.66336 C18.3712,9.52128 18.36864,9.37984 18.36224,9.23904 C19.00416,8.77632 19.56096,8.1984 20,7.53984" fill="#000000"></path>
                    </g>
                </g>
            </g>
        </g>
    </g>
</svg>