<?xml version="1.0" encoding="UTF-8"?>
<svg width="24px" height="24px" viewBox="0 0 24 24" version="1.1" xmlns="http://www.w3.org/2000/svg" xmlns:xlink="http://www.w3.org/1999/xlink">
    <!-- Generator: Sketch 52.3 (67297) - http://www.bohemiancoding.com/sketch -->
    <title>icon-facebook</title>
    <desc>Created with Sketch.</desc>
    <g id="Page-1" stroke="none" stroke-width="1" fill="none" fill-rule="evenodd">
        <g id="discussify_style-guide" transform="translate(-764.000000, -3515.000000)">
            <g id="iconography" transform="translate(342.000000, 3331.000000)">
                <g id="icons-24px" transform="translate(0.000000, 184.000000)">
                    <g id="icon-facebook" transform="translate(422.000000, 0.000000)">
                        <rect id="icon-facebook_BG" x="0" y="0" width="24" height="24"></rect>
                        <path d="M8,8.95296 L9.86048,8.95296 L9.86048,7.14432 C9.86048,6.34656 9.88064,5.1168 10.46024,4.35576 C11.07008,3.54864 11.90744,3 13.34816,3 C15.69536,3 16.68392,3.3348 16.68392,3.3348 L16.2188,6.09168 C16.2188,6.09168 15.44264,5.86704 14.71976,5.86704 C13.99616,5.86704 13.34816,6.12696 13.34816,6.84984 L13.34816,8.95296 L16.31528,8.95296 L16.10792,11.64576 L13.34816,11.64576 L13.34816,21 L9.86048,21 L9.86048,11.64576 L8,11.64576 L8,8.95296 Z" fill="#000000"></path>
                    </g>
                </g>
            </g>
        </g>
    </g>
</svg>