<?xml version="1.0" encoding="UTF-8"?>
<svg width="126px" height="14px" viewBox="0 0 126 14" version="1.1" xmlns="http://www.w3.org/2000/svg" xmlns:xlink="http://www.w3.org/1999/xlink">
    <!-- Generator: Sketch 52.4 (67378) - http://www.bohemiancoding.com/sketch -->
    <title>DISCUSSIFY</title>
    <desc>Created with Sketch.</desc>
    <g id="comps-to-html" stroke="none" stroke-width="1" fill="none" fill-rule="evenodd">
        <g id="discussify-extension_flow-03" transform="translate(-1163.000000, -625.000000)" fill="#0A6ADB">
            <g id="pop-over" transform="translate(1026.000000, 436.000000)">
                <g id="discussify-logotype" transform="translate(137.000000, 189.000000)">
                    <path d="M4.8,0.224 C9.44,0.224 12.24,2.64 12.24,6.608 C12.24,10.608 9.52,13.024 4.8,13.024 L0,13.024 L0,0.224 L4.8,0.224 Z M4.784,10.896 C7.712,10.896 9.616,9.28 9.6,6.608 C9.568,3.952 7.776,2.368 4.784,2.352 L2.528,2.352 L2.528,10.896 L4.784,10.896 Z M18.688,13.024 L16.112,13.024 L16.112,0.224 L18.688,0.224 L18.688,13.024 Z M27.5200001,13.248 C25.7920001,13.248 24.0160001,12.848 22.7040001,12.224 L22.7040001,9.904 C24.2080001,10.704 25.9200001,11.008 27.2640001,11.008 C29.0400001,11.008 30.3520001,10.448 30.3520001,9.392 C30.3520001,8.592 29.7600001,8.064 27.9680001,7.744 L26.8000001,7.536 C23.7760001,6.992 22.7040001,5.488 22.7040001,3.808 C22.7040001,1.184 25.2000001,0 28.3040001,0 C29.6640001,0 30.9280001,0.208 32.3360001,0.704 L32.3360001,2.96 C30.8800001,2.384 29.4720001,2.224 28.4320001,2.224 C26.9600001,2.224 25.3600001,2.576 25.3600001,3.648 C25.3600001,4.352 25.8080001,4.832 27.9200001,5.248 L29.0400001,5.472 C31.9360001,6.048 33.0240001,7.328 33.0240001,9.136 C33.0240001,11.808 30.5760001,13.248 27.5200001,13.248 Z M46.8160001,10.064 L46.8160001,12.384 C45.7440001,12.944 44.7200001,13.248 43.0720001,13.248 C38.9120001,13.248 35.9040001,10.544 35.9040001,6.576 C35.9040001,2.624 38.8960001,0 43.0720001,0 C44.8160001,0 46.0000001,0.304 46.8160001,0.656 L46.8160001,3.024 C45.5680001,2.48 44.4800001,2.32 43.4080001,2.32 C40.5600001,2.32 38.6240001,4.112 38.6080001,6.576 C38.6080001,9.04 40.5600001,10.928 43.3920001,10.928 C44.5440001,10.928 45.5360001,10.752 46.8160001,10.064 Z M59.9200002,0.224 L62.4480002,0.224 L62.4480002,7.856 C62.4480002,11.168 60.1280002,13.248 56.4800002,13.248 C52.9120002,13.248 50.5280002,11.168 50.5280002,7.856 L50.5280002,0.224 L53.1040002,0.224 L53.1040002,7.504 C53.1040002,9.616 54.4800002,10.928 56.5600002,10.928 C58.6560002,10.928 59.9520002,9.616 59.9360002,7.504 L59.9200002,0.224 Z M71.1040002,13.248 C69.3760002,13.248 67.6000002,12.848 66.2880002,12.224 L66.2880002,9.904 C67.7920002,10.704 69.5040002,11.008 70.8480002,11.008 C72.6240002,11.008 73.9360002,10.448 73.9360002,9.392 C73.9360002,8.592 73.3440002,8.064 71.5520002,7.744 L70.3840002,7.536 C67.3600002,6.992 66.2880002,5.488 66.2880002,3.808 C66.2880002,1.184 68.7840002,0 71.8880002,0 C73.2480002,0 74.5120002,0.208 75.9200002,0.704 L75.9200002,2.96 C74.4640002,2.384 73.0560002,2.224 72.0160002,2.224 C70.5440002,2.224 68.9440002,2.576 68.9440002,3.648 C68.9440002,4.352 69.3920002,4.832 71.5040002,5.248 L72.6240002,5.472 C75.5200002,6.048 76.6080002,7.328 76.6080002,9.136 C76.6080002,11.808 74.1600002,13.248 71.1040002,13.248 Z M84.4800003,13.248 C82.7520003,13.248 80.9760003,12.848 79.6640003,12.224 L79.6640003,9.904 C81.1680003,10.704 82.8800003,11.008 84.2240003,11.008 C86.0000003,11.008 87.3120003,10.448 87.3120003,9.392 C87.3120003,8.592 86.7200003,8.064 84.9280003,7.744 L83.7600003,7.536 C80.7360003,6.992 79.6640003,5.488 79.6640003,3.808 C79.6640003,1.184 82.1600003,0 85.2640003,0 C86.6240003,0 87.8880003,0.208 89.2960003,0.704 L89.2960003,2.96 C87.8400003,2.384 86.4320003,2.224 85.3920003,2.224 C83.9200003,2.224 82.3200003,2.576 82.3200003,3.648 C82.3200003,4.352 82.7680003,4.832 84.8800003,5.248 L86.0000003,5.472 C88.8960003,6.048 89.9840003,7.328 89.9840003,9.136 C89.9840003,11.808 87.5360003,13.248 84.4800003,13.248 Z M96.3200003,13.024 L93.7440003,13.024 L93.7440003,0.224 L96.3200003,0.224 L96.3200003,13.024 Z M110.72,2.496 L103.616,2.496 L103.616,6.624 L110.08,6.624 L110.08,8.752 L103.616,8.752 L103.616,13.024 L101.04,13.024 L101.04,0.224 L110.72,0.224 L110.72,2.496 Z M123.184,0.224 L126.064,0.224 L120.624,8.544 L120.624,13.024 L118.032,13.024 L118.032,8.512 L112.624,0.224 L115.664,0.224 L119.376,6.368 L123.184,0.224 Z" id="DISCUSSIFY"></path>
                </g>
            </g>
        </g>
    </g>
</svg>