<?xml version="1.0" encoding="UTF-8"?>
<svg width="16px" height="16px" viewBox="0 0 16 16" version="1.1" xmlns="http://www.w3.org/2000/svg" xmlns:xlink="http://www.w3.org/1999/xlink">
    <!-- Generator: Sketch 50.2 (55047) - http://www.bohemiancoding.com/sketch -->
    <title>edit-icon</title>
    <desc>Created with Sketch.</desc>
    <defs></defs>
    <g id="style-guide_v01" stroke="none" stroke-width="1" fill="none" fill-rule="evenodd">
        <g id="discussify_style-guide" transform="translate(-1028.000000, -2552.000000)">
            <g id="icons" transform="translate(343.000000, 2549.000000)">
                <g id="icons-16px" transform="translate(639.000000, 3.000000)">
                    <g id="edit-icon" transform="translate(46.000000, 0.000000)">
                        <rect id="edit-icon_BG" x="0" y="0" width="16" height="16"></rect>
                        <path d="M7.01530801,9.0259321 L7.01530801,8.33843272 L12.2812417,3.06562405 L12.9206161,3.71874846 C12.8106162,3.84937334 7.8059323,8.84374476 7.66843242,8.98811964 L7.01530801,9.0259321 Z M13.7215529,4.36843538 C13.937084,4.13709184 14.0209589,3.81259213 13.9449902,3.50562365 C13.9003027,3.34234255 13.8109278,3.19487393 13.6871779,3.07937403 L13.3124908,2.65999941 C13.1853034,2.53624952 13.0612097,2.40906213 12.9343661,2.28187475 C12.8078662,2.14953112 12.6432101,2.05912495 12.463429,2.02406248 C12.3090854,1.99243751 12.1495856,2.0006875 11.9990232,2.04812496 C11.8615233,2.09590616 11.7360547,2.17359359 11.6315548,2.27499975 C11.5353049,2.36437467 6.16624627,7.73687076 6.16624627,7.73687076 C6.06930885,7.83827692 6.0129339,7.97130805 6.00812141,8.11155792 L6.00812141,8.25937029 L5.95655896,9.4762442 L5.95655896,9.57249411 C5.95655896,9.85368136 6.18412125,10.0812437 6.4653085,10.0812437 L7.25249529,10.0331187 L7.75436984,10.0021812 L7.88843222,10.0021812 C8.0314321,10.002525 8.16893197,9.94855628 8.27343188,9.85093136 C8.50683792,9.62749406 13.4671781,4.66062262 13.7284279,4.39593535 L13.7215529,4.36843538 Z M11.9687411,11.2224926 C11.9824911,11.4273675 11.9824911,11.6329298 11.9687411,11.8378046 L11.9890223,11.7003047 C11.9653036,11.8656483 11.9202724,12.0275544 11.8553037,12.1815543 L11.9068661,12.0578044 C11.8408662,12.2118042 11.7566475,12.3572104 11.6559288,12.490929 L11.7349913,12.3878041 C11.6346164,12.5160227 11.5194602,12.6315226 11.3912416,12.7315538 L11.4943665,12.6524914 C11.3603041,12.75321 11.214898,12.8374287 11.0612419,12.9034286 L11.184648,12.8518662 C11.0306482,12.9168349 10.8694296,12.9622098 10.7037422,12.9859286 L10.8408983,12.9653036 C10.5727736,12.9914285 10.3025863,12.9979598 10.0334303,12.9859286 L4.43031032,12.9859286 C4.3416229,12.9869598 4.25327923,12.9811161 4.16562306,12.9687411 L4.29968544,12.9893661 C4.13537309,12.9653036 3.97449823,12.9202724 3.82187337,12.8553037 L3.94562326,12.9068661 C3.79127965,12.8415537 3.64552978,12.757335 3.51249865,12.6559288 L3.61562355,12.7349913 C3.48740492,12.6346164 3.37190502,12.5194602 3.27187386,12.3912416 L3.35093629,12.4943665 C3.24781138,12.3620229 3.16324896,12.2166167 3.09999901,12.0612419 C3.09999901,12.1028356 3.13437398,12.1437418 3.14812397,12.1849918 C3.09003027,12.0285857 3.05084281,11.8659921 3.03124908,11.7003047 L3.03124908,11.8378046 C3.01371784,11.5689923 3.01371784,11.2991488 3.03124908,11.0299928 L3.03124908,5.43031032 C3.02609283,5.3423104 3.02609283,5.25396673 3.03124908,5.16562306 L3.03124908,5.29968544 C3.05221781,5.13606059 3.09278027,4.97587323 3.15156147,4.82187337 C3.15156147,4.86312333 3.1171865,4.90437329 3.10343651,4.94562326 C3.16737395,4.7909359 3.25159263,4.64518603 3.35437379,4.51249865 L3.27531136,4.61562355 C3.37534252,4.48740492 3.49084241,4.37190502 3.61906105,4.27187386 L3.51593614,4.35093629 C3.64827977,4.24815513 3.79402964,4.16393646 3.94906075,4.09999901 L3.82531086,4.14812397 C3.97827948,4.09071777 4.13743559,4.05153031 4.29968544,4.03124908 L4.16562306,4.03124908 C4.34402915,4.01921784 4.52346649,4.01921784 4.70187258,4.03124908 L8.06030707,4.03124908 C8.34115057,4.02953033 8.56871287,3.80334303 8.57249411,3.52249953 C8.57249411,3.23787479 8.34493182,3.0055 8.06030707,3 L4.43718532,3 C3.53037363,3.00275 2.69884312,3.5049683 2.27499975,4.30624883 C2.09556241,4.65618602 2.00103125,5.04393567 2,5.43718532 L2,11.5662423 C2.00103125,11.9808045 2.10621865,12.3888353 2.30593723,12.7521788 C2.74112434,13.5204593 3.55443611,13.9962089 4.43718532,13.9999901 L10.5628048,13.9999901 C11.9048036,14.0037714 12.9962089,12.9188974 12.9999901,11.5765548 L12.9999901,7.93968307 C12.9979276,7.65815208 12.7693341,7.43093353 12.4878031,7.43093353 C12.2048971,7.43093353 11.9742411,7.65712083 11.9687411,7.93968307 L11.9687411,11.2224926 Z" fill="#000000"></path>
                    </g>
                </g>
            </g>
        </g>
    </g>
</svg>