<?xml version="1.0" encoding="UTF-8"?>
<svg width="24px" height="24px" viewBox="0 0 24 24" version="1.1" xmlns="http://www.w3.org/2000/svg" xmlns:xlink="http://www.w3.org/1999/xlink">
    <!-- Generator: Sketch 50.2 (55047) - http://www.bohemiancoding.com/sketch -->
    <title>icon-linkedin</title>
    <desc>Created with Sketch.</desc>
    <defs></defs>
    <g id="Page-1" stroke="none" stroke-width="1" fill="none" fill-rule="evenodd">
        <g id="discussify_style-guide" transform="translate(-557.000000, -3445.000000)">
            <g id="iconography" transform="translate(343.000000, 3261.000000)">
                <g id="icons-24px" transform="translate(2.000000, 184.000000)">
                    <g id="icon-linkedin" transform="translate(212.000000, 0.000000)">
                        <rect id="icon-linkedin_BG" x="0" y="0" width="24" height="24"></rect>
                        <path d="M20,18.6944 L16.464,18.6944 L16.464,13.52896 C16.464,12.176 15.91104,11.2544 14.6944,11.2544 C13.76384,11.2544 13.24672,11.87584 13.00544,12.4768 C12.91584,12.69184 12.92928,12.99136 12.92928,13.2928 L12.92928,18.6944 L9.42592,18.6944 C9.42592,18.6944 9.47136,9.54368 9.42592,8.71168 L12.92928,8.71168 L12.92928,10.2784 C13.136,9.59296 14.25536,8.61504 16.04224,8.61504 C18.25856,8.61504 20,10.0512 20,13.14368 L20,18.6944 Z M5.88288,7.4624 L5.86048,7.4624 C4.73216,7.4624 4,6.70016 4,5.73376 C4,4.74688 4.75392,4 5.90528,4 C7.05472,4 7.7632,4.74496 7.7856,5.73056 C7.7856,6.69696 7.05472,7.4624 5.88288,7.4624 Z M4.4032,18.6944 L7.52256,18.6944 L7.52256,8.71168 L4.4032,8.71168 L4.4032,18.6944 Z" fill="#000000"></path>
                    </g>
                </g>
            </g>
        </g>
    </g>
</svg>