<?xml version="1.0" encoding="UTF-8"?>
<svg width="24px" height="24px" viewBox="0 0 24 24" version="1.1" xmlns="http://www.w3.org/2000/svg" xmlns:xlink="http://www.w3.org/1999/xlink">
    <!-- Generator: Sketch 50.2 (55047) - http://www.bohemiancoding.com/sketch -->
    <title>link-icon</title>
    <desc>Created with Sketch.</desc>
    <defs></defs>
    <g id="style-guide_v01" stroke="none" stroke-width="1" fill="none" fill-rule="evenodd">
        <g id="discussify_style-guide" transform="translate(-345.000000, -2549.000000)">
            <g id="icons" transform="translate(343.000000, 2549.000000)">
                <g id="icons-24px" transform="translate(2.000000, 0.000000)">
                    <g id="link-icon">
                        <rect id="link-icon_BG" x="0" y="0" width="24" height="24"></rect>
                        <path d="M16.3053822,13.4350522 C14.7234083,15.0170262 12.1466962,15.0170262 10.5647222,13.4350522 C10.3024506,13.1727806 10.3058333,12.7440803 10.5683305,12.4818086 C10.8306021,12.2193114 11.2556942,12.2193114 11.5215741,12.4784259 C12.5898294,13.5466812 14.2802751,13.5466812 15.3485304,12.4782004 L18.8566113,8.97011952 C19.9250921,7.90163873 19.9250921,6.21141848 18.8566113,5.1431632 C17.788356,4.0746824 16.0981358,4.0746824 15.0298805,5.1431632 L11.5215741,8.65124408 C11.2611065,8.91937909 10.8328573,8.92524243 10.5647222,8.66500038 C10.2968127,8.40453281 10.2907239,7.97605803 10.5511915,7.70814854 C10.5557017,7.70363828 10.560212,7.6989025 10.5647222,7.69439224 L14.0730286,4.18631136 C15.6547771,2.60456288 18.2317147,2.60456288 19.8136886,4.18631136 C21.3954371,5.76805984 21.3954371,8.34499737 19.8136886,9.92697136 L16.3053822,13.4350522 Z M9.92697136,19.8136886 C8.34499737,21.3954371 5.76805984,21.3954371 4.18631136,19.8136886 C2.60456288,18.2317147 2.60456288,15.6547771 4.18631136,14.0730286 L7.69439224,10.5647222 C9.27636623,8.98297377 11.8533038,8.98297377 13.4350522,10.5647222 C13.699128,10.8290235 13.6993535,11.2572728 13.4350522,11.5215741 C13.1709765,11.7858754 12.7425017,11.7858754 12.4782004,11.5215741 C11.4099451,10.4530933 9.71949936,10.4533188 8.65124408,11.5215741 L5.1431632,15.0298805 C4.0746824,16.0981358 4.0746824,17.788356 5.14293768,18.8568368 C6.21141848,19.9253176 7.90163873,19.9253176 8.97011952,18.8568368 L12.4782004,15.3487559 C12.7388935,15.0806209 13.1671427,15.0747576 13.4348267,15.3354507 C13.7029617,15.5961437 13.7088251,16.024393 13.4483575,16.292077 C13.4440728,16.2965872 13.4395625,16.300872 13.4348267,16.3053822 L9.92697136,19.8136886 Z" fill="#000000"></path>
                    </g>
                </g>
            </g>
        </g>
    </g>
</svg>