<?xml version="1.0" encoding="UTF-8"?>
<svg width="16px" height="16px" viewBox="0 0 16 16" version="1.1" xmlns="http://www.w3.org/2000/svg" xmlns:xlink="http://www.w3.org/1999/xlink">
    <!-- Generator: Sketch 50.2 (55047) - http://www.bohemiancoding.com/sketch -->
    <title>remove-icon</title>
    <desc>Created with Sketch.</desc>
    <defs></defs>
    <g id="style-guide_v01" stroke="none" stroke-width="1" fill="none" fill-rule="evenodd">
        <g id="discussify_style-guide" transform="translate(-982.000000, -2552.000000)">
            <g id="icons" transform="translate(343.000000, 2549.000000)">
                <g id="icons-16px" transform="translate(639.000000, 3.000000)">
                    <g id="remove-icon">
                        <rect id="remove-icon_BG" x="0" y="0" width="16" height="16"></rect>
                        <path d="M5.13139855,13.2967307 C5.17356121,13.6961629 5.51021895,13.9994746 5.9107486,13.9999323 L9.48044804,13.9999697 C9.88627766,14.0034829 10.2265018,13.6938866 10.2615582,13.2851584 L10.9817385,5.29411765 L4.28724106,5.29411765 L5.13139855,13.2967307 Z M12.0069969,5.05882353 L11.2575217,13.374918 C11.1782055,14.2999261 10.4000737,15.0079681 9.47179175,14.9999323 L5.9107486,14.9999323 C4.99794297,14.9988906 4.23275768,14.3095988 4.13692351,13.401704 L3.25687283,5.05882353 L2.38235294,5.05882353 C2.17118524,5.05882353 2,4.88763829 2,4.67647059 C2,4.46530289 2.17118524,4.29411765 2.38235294,4.29411765 L13.0882353,4.29411765 C13.299403,4.29411765 13.4705882,4.46530289 13.4705882,4.67647059 C13.4705882,4.88763829 13.299403,5.05882353 13.0882353,5.05882353 L12.0069969,5.05882353 Z M6.5,2 L8.5,2 C8.77614237,2 9,2.22385763 9,2.5 C9,2.77614237 8.77614237,3 8.5,3 L6.5,3 C6.22385763,3 6,2.77614237 6,2.5 C6,2.22385763 6.22385763,2 6.5,2 Z" fill="#000000" fill-rule="nonzero"></path>
                    </g>
                </g>
            </g>
        </g>
    </g>
</svg>