<?xml version="1.0" encoding="UTF-8"?>
<svg width="24px" height="24px" viewBox="0 0 24 24" version="1.1" xmlns="http://www.w3.org/2000/svg" xmlns:xlink="http://www.w3.org/1999/xlink">
    <!-- Generator: Sketch 50.2 (55047) - http://www.bohemiancoding.com/sketch -->
    <title>share-icon</title>
    <desc>Created with Sketch.</desc>
    <defs></defs>
    <g id="style-guide_v01" stroke="none" stroke-width="1" fill="none" fill-rule="evenodd">
        <g id="discussify_style-guide" transform="translate(-399.000000, -2549.000000)">
            <g id="icons" transform="translate(343.000000, 2549.000000)">
                <g id="icons-24px" transform="translate(2.000000, 0.000000)">
                    <g id="share-icon" transform="translate(54.000000, 0.000000)">
                        <rect id="share-icon_BG" x="0" y="0" width="24" height="24"></rect>
                        <path d="M17.1025641,16.8717949 C18.1028205,16.8717949 18.8974359,17.6664103 18.8974359,18.6666667 C18.8974359,19.6669231 18.1028205,20.4615385 17.1025641,20.4615385 C16.1023077,20.4615385 15.3076923,19.6669231 15.3076923,18.6666667 C15.3076923,17.6664103 16.1023077,16.8717949 17.1025641,16.8717949 M6.33333333,10.2051282 C7.33358974,10.2051282 8.12820513,10.9997436 8.12820513,12 C8.12820513,13.0002564 7.33358974,13.7948718 6.33333333,13.7948718 C5.33307692,13.7948718 4.53846154,13.0002564 4.53846154,12 C4.53846154,10.9997436 5.33307692,10.2051282 6.33333333,10.2051282 M17.1025641,3.53846154 C18.1028205,3.53846154 18.8974359,4.33307692 18.8974359,5.33333333 C18.8974359,6.33358974 18.1028205,7.12820513 17.1025641,7.12820513 C16.1023077,7.12820513 15.3076923,6.33358974 15.3076923,5.33333333 C15.3076923,4.33307692 16.1023077,3.53846154 17.1025641,3.53846154 M17.1025641,2 C15.2705128,2 13.7692308,3.50153846 13.7692308,5.33333333 C13.7692308,5.68846154 13.8253846,6.03717949 13.9294872,6.35897436 L8.42461538,9.42 C7.85102564,8.95410256 7.12435897,8.66666667 6.33333333,8.66666667 C4.50153846,8.66666667 3,10.1682051 3,12 C3,13.8317949 4.50153846,15.3333333 6.33333333,15.3333333 C7.12435897,15.3333333 7.85102564,15.0538462 8.42461538,14.5882051 L13.9374359,17.6489744 C13.8325641,17.9715385 13.7692308,18.3105128 13.7692308,18.6666667 C13.7692308,20.4987179 15.2705128,22 17.1025641,22 C18.9346154,22 20.4358974,20.4987179 20.4358974,18.6666667 C20.4358974,16.8346154 18.9346154,15.3333333 17.1025641,15.3333333 C16.1825641,15.3333333 15.3438462,15.7179487 14.7387179,16.3269231 L9.37820513,13.3461538 C9.56128205,12.9346154 9.66666667,12.4771795 9.66666667,12 C9.66666667,11.52 9.56333333,11.0671795 9.37820513,10.6538462 L14.7307692,7.67307692 C15.3364103,8.28692308 16.1784615,8.66666667 17.1025641,8.66666667 C18.9346154,8.66666667 20.4358974,7.16512821 20.4358974,5.33333333 C20.4358974,3.50153846 18.9346154,2 17.1025641,2" fill="#000000"></path>
                    </g>
                </g>
            </g>
        </g>
    </g>
</svg>