<?xml version="1.0" encoding="UTF-8"?>
<svg width="16px" height="16px" viewBox="0 0 16 16" version="1.1" xmlns="http://www.w3.org/2000/svg" xmlns:xlink="http://www.w3.org/1999/xlink">
    <!-- Generator: Sketch 50.2 (55047) - http://www.bohemiancoding.com/sketch -->
    <title>unverified-icon</title>
    <desc>Created with Sketch.</desc>
    <defs></defs>
    <g id="style-guide_v01" stroke="none" stroke-width="1" fill="none" fill-rule="evenodd">
        <g id="discussify_style-guide" transform="translate(-1256.000000, -2552.000000)">
            <g id="icons" transform="translate(343.000000, 2549.000000)">
                <g id="icons-16px" transform="translate(639.000000, 3.000000)">
                    <g id="unverified-icon" transform="translate(274.000000, 0.000000)">
                        <rect x="0" y="0" width="16" height="16"></rect>
                        <path d="M8.67017368,7.76538399 L11.5308642,4.89233283 L10.6336744,4 C10.3424616,4.29131286 9.09942091,5.53172798 7.7654321,6.86270666 C6.43144329,5.53172798 5.1884026,4.29131286 4.89718978,4 L4,4.89233283 L6.86069052,7.76538399 C5.45254019,9.1702928 4.15941201,10.4603387 4,10.6195979 L4.92089358,11.5308642 L7.7654321,8.67403483 L10.6099706,11.5308642 L11.5308642,10.6195979 C11.3714522,10.4603387 10.078324,9.1702928 8.67017368,7.76538399 Z M7.91358025,14.8271605 C4.09531531,14.8271605 1,11.7318452 1,7.91358025 C1,4.09531531 4.09531531,1 7.91358025,1 C11.7318452,1 14.8271605,4.09531531 14.8271605,7.91358025 C14.8271605,11.7318452 11.7318452,14.8271605 7.91358025,14.8271605 Z" fill="#000000"></path>
                    </g>
                </g>
            </g>
        </g>
    </g>
</svg>