<?xml version="1.0" encoding="UTF-8"?>
<svg width="16px" height="16px" viewBox="0 0 16 16" version="1.1" xmlns="http://www.w3.org/2000/svg" xmlns:xlink="http://www.w3.org/1999/xlink">
    <!-- Generator: Sketch 50.2 (55047) - http://www.bohemiancoding.com/sketch -->
    <title>warning-icon</title>
    <desc>Created with Sketch.</desc>
    <defs></defs>
    <g id="Page-1" stroke="none" stroke-width="1" fill="none" fill-rule="evenodd">
        <g id="discussify_style-guide" transform="translate(-1119.000000, -3448.000000)">
            <g id="iconography" transform="translate(343.000000, 3261.000000)">
                <g id="icons-16px" transform="translate(639.000000, 187.000000)">
                    <g id="warning-icon" transform="translate(137.000000, 0.000000)">
                        <rect id="warning-icon_BG" x="0" y="0" width="16" height="16"></rect>
                        <path d="M7.99993747,13.2387228 C7.43805974,13.2387228 7.06347459,12.8631965 7.06347459,12.2984952 C7.06347459,11.7347352 7.43805974,11.3592088 7.99993747,11.3592088 C8.5618152,11.3592088 8.93640035,11.7347352 8.93640035,12.2984952 C8.93640035,12.8631965 8.5618152,13.2387228 7.99993747,13.2387228 Z M7.53123545,9.48063608 L8.46769833,9.48063608 L8.46769833,4.78326298 L7.53123545,4.78326298 L7.53123545,9.48063608 Z M15.868108,13.6076609 L8.84322465,1.52870153 C8.4686395,0.823766156 7.53123545,0.823766156 7.1566503,1.52870153 L0.131766942,13.6076609 C-0.24281821,14.3125963 0.225883814,15.1172956 0.975054118,15.1172956 L15.0248208,15.1172956 C15.7749323,15.1172956 16.2426932,14.3125963 15.868108,13.6076609 Z" fill="#000000"></path>
                    </g>
                </g>
            </g>
        </g>
    </g>
</svg>