<?xml version="1.0" encoding="utf-8"?>
<!-- Generator: Adobe Illustrator 22.1.0, SVG Export Plug-In . SVG Version: 6.00 Build 0)  -->
<svg version="1.1" id="edit-icon" xmlns="http://www.w3.org/2000/svg" xmlns:xlink="http://www.w3.org/1999/xlink" x="0px" y="0px"
	 viewBox="0 0 16 16" style="enable-background:new 0 0 16 16;" xml:space="preserve">
<path id="_x3C_Path_x3E_" d="M7.02,9.03V8.34l5.27-5.27l0.64,0.65c-0.11,0.13-5.11,5.12-5.25,5.27L7.02,9.03z M13.72,4.37
	c0.22-0.23,0.3-0.56,0.22-0.86c-0.04-0.16-0.13-0.31-0.26-0.43c0,0-0.63-0.67-0.75-0.8c-0.13-0.13-0.29-0.22-0.47-0.26
	C12.31,1.99,12.15,2,12,2.05c-0.14,0.05-0.26,0.13-0.37,0.23c-0.1,0.09-5.47,5.46-5.47,5.46c-0.1,0.1-0.15,0.23-0.16,0.37v0.15
	L5.96,9.48v0.1c0,0.28,0.23,0.51,0.51,0.51l0.79-0.05L7.75,10h0.13c0.14,0,0.28-0.05,0.38-0.15c0.23-0.22,5.19-5.19,5.45-5.45
	L13.72,4.37z M11.97,11.22c0.01,0.2,0.01,0.41,0,0.62l0.02-0.14c-0.02,0.17-0.07,0.33-0.13,0.48l0.05-0.12
	c-0.07,0.15-0.15,0.3-0.25,0.43l0.08-0.1c-0.1,0.13-0.22,0.24-0.34,0.34l0.1-0.08c-0.13,0.1-0.28,0.18-0.43,0.25l0.12-0.05
	c-0.15,0.06-0.32,0.11-0.48,0.13l0.14-0.02c-0.27,0.03-0.54,0.03-0.81,0.02h-5.6c-0.09,0-0.18,0-0.26-0.02l0.13,0.02
	c-0.16-0.02-0.33-0.07-0.48-0.13l0.12,0.05c-0.15-0.07-0.3-0.15-0.43-0.25l0.1,0.08c-0.13-0.1-0.24-0.22-0.34-0.34l0.08,0.1
	c-0.1-0.13-0.19-0.28-0.25-0.43c0,0.04,0.03,0.08,0.05,0.12c-0.06-0.16-0.1-0.32-0.12-0.48v0.14c-0.02-0.27-0.02-0.54,0-0.81v-5.6
	c-0.01-0.09-0.01-0.18,0-0.26V5.3c0.02-0.16,0.06-0.32,0.12-0.48c0,0.04-0.03,0.08-0.05,0.12c0.06-0.15,0.15-0.3,0.25-0.43
	l-0.08,0.1c0.1-0.13,0.22-0.24,0.34-0.34l-0.1,0.08c0.13-0.1,0.28-0.19,0.43-0.25L3.83,4.15c0.15-0.06,0.31-0.1,0.47-0.12H4.17
	c0.18-0.01,0.36-0.01,0.54,0h3.36c0.28,0,0.51-0.23,0.51-0.51c0-0.28-0.23-0.52-0.51-0.52H4.44C3.53,3,2.7,3.5,2.27,4.31
	C2.1,4.66,2,5.04,2,5.44v6.13c0,0.41,0.11,0.82,0.31,1.19C2.74,13.52,3.55,14,4.44,14h6.13C11.9,14,13,12.92,13,11.58V7.94
	c0-0.28-0.23-0.51-0.51-0.51c-0.28,0-0.51,0.23-0.52,0.51V11.22z"/>
</svg>
