<?xml version="1.0" encoding="utf-8"?>
<!-- Generator: Adobe Illustrator 22.1.0, SVG Export Plug-In . SVG Version: 6.00 Build 0)  -->
<svg version="1.1" id="remove-icon" xmlns="http://www.w3.org/2000/svg" xmlns:xlink="http://www.w3.org/1999/xlink" x="0px"
	 y="0px" viewBox="0 0 16 16" style="enable-background:new 0 0 16 16;" xml:space="preserve">
<path id="_x3C_Path_x3E_" d="M5.1,13.3c0,0.4,0.4,0.7,0.8,0.7l3.6,0c0.4,0,0.7-0.3,0.8-0.7l0.7-8H4.3L5.1,13.3z M12,5.1l-0.7,8.3
	c-0.1,0.9-0.9,1.6-1.8,1.6H5.9c-0.9,0-1.7-0.7-1.8-1.6L3.3,5.1H2.4C2.2,5.1,2,4.9,2,4.7c0-0.2,0.2-0.4,0.4-0.4h10.7
	c0.2,0,0.4,0.2,0.4,0.4c0,0.2-0.2,0.4-0.4,0.4H12z M6.5,2h2C8.8,2,9,2.2,9,2.5S8.8,3,8.5,3h-2C6.2,3,6,2.8,6,2.5S6.2,2,6.5,2z"/>
</svg>
