<?xml version="1.0" encoding="utf-8"?>
<!-- Generator: Adobe Illustrator 22.1.0, SVG Export Plug-In . SVG Version: 6.00 Build 0)  -->
<svg version="1.1" id="unverified-icon" xmlns="http://www.w3.org/2000/svg" xmlns:xlink="http://www.w3.org/1999/xlink" x="0px"
	 y="0px" viewBox="0 0 16 16" style="enable-background:new 0 0 16 16;" xml:space="preserve">
<path id="_x3C_Path_x3E_" d="M8.7,7.8l2.9-2.9L10.6,4c-0.3,0.3-1.5,1.5-2.9,2.9C6.4,5.5,5.2,4.3,4.9,4L4,4.9l2.9,2.9
	C5.5,9.2,4.2,10.5,4,10.6l0.9,0.9l2.8-2.9l2.8,2.9l0.9-0.9C11.4,10.5,10.1,9.2,8.7,7.8z M7.9,14.8C4.1,14.8,1,11.7,1,7.9
	S4.1,1,7.9,1s6.9,3.1,6.9,6.9S11.7,14.8,7.9,14.8z"/>
</svg>
