<?xml version="1.0" encoding="utf-8"?>
<!-- Generator: Adobe Illustrator 22.1.0, SVG Export Plug-In . SVG Version: 6.00 Build 0)  -->
<svg version="1.1" id="veryfing-icon" xmlns="http://www.w3.org/2000/svg" xmlns:xlink="http://www.w3.org/1999/xlink" x="0px"
	 y="0px" viewBox="0 0 16 16" style="enable-background:new 0 0 16 16;" xml:space="preserve">
<path id="_x3C_Path_x3E_" d="M8,15c-3.9,0-7-3.1-7-7s3.1-7,7-7s7,3.1,7,7S11.9,15,8,15z M4,9c0.6,0,1-0.4,1-1S4.6,7,4,7S3,7.4,3,8
	S3.4,9,4,9z M8,9c0.6,0,1-0.4,1-1S8.6,7,8,7S7,7.4,7,8S7.4,9,8,9z M12,9c0.6,0,1-0.4,1-1s-0.4-1-1-1s-1,0.4-1,1S11.4,9,12,9z"/>
</svg>
