<?xml version="1.0" encoding="UTF-8"?>
<svg width="16px" height="16px" viewBox="0 0 16 16" version="1.1" xmlns="http://www.w3.org/2000/svg" xmlns:xlink="http://www.w3.org/1999/xlink">
    <!-- Generator: Sketch 52.3 (67297) - http://www.bohemiancoding.com/sketch -->
    <title>icon-edit</title>
    <desc>Created with Sketch.</desc>
    <g id="Page-1" stroke="none" stroke-width="1" fill="none" fill-rule="evenodd">
        <g id="discussify_style-guide" transform="translate(-1028.000000, -3518.000000)">
            <g id="iconography" transform="translate(342.000000, 3331.000000)">
                <g id="icons-16px" transform="translate(640.000000, 187.000000)">
                    <g id="icon-edit" transform="translate(46.000000, 0.000000)">
                        <rect id="icon-edit_BG" x="0" y="0" width="16" height="16"></rect>
                        <path d="M7.01530801,9.02072412 L7.01530801,8.33322474 L12.2812417,3.06041607 L12.9206161,3.71354048 C12.8106162,3.84416536 7.8059323,8.83853679 7.66843242,8.98291166 L7.01530801,9.02072412 Z M13.7215529,4.3632274 C13.937084,4.13188386 14.0209589,3.80738415 13.9449902,3.50041567 C13.9003027,3.33713457 13.8109278,3.18966595 13.6871779,3.07416605 L13.3124908,2.65479143 C13.1853034,2.53104154 13.0612097,2.40385415 12.9343661,2.27666677 C12.8078662,2.14432314 12.6432101,2.05391697 12.463429,2.0188545 C12.3090854,1.98722953 12.1495856,1.99547952 11.9990232,2.04291698 C11.8615233,2.09069818 11.7360547,2.16838561 11.6315548,2.26979177 C11.5353049,2.35916669 6.16624627,7.73166278 6.16624627,7.73166278 C6.06930885,7.83306894 6.0129339,7.96610007 6.00812141,8.10634994 L6.00812141,8.25416231 L5.95655896,9.47103622 L5.95655896,9.56728613 C5.95655896,9.84847338 6.18412125,10.0760357 6.4653085,10.0760357 L7.25249529,10.0279107 L7.75436984,9.99697325 L7.88843222,9.99697325 C8.0314321,9.997317 8.16893197,9.9433483 8.27343188,9.84572338 C8.50683792,9.62228608 13.4671781,4.65541464 13.7284279,4.39072737 L13.7215529,4.3632274 Z M11.9687411,11.2172847 C11.9824911,11.4221595 11.9824911,11.6277218 11.9687411,11.8325966 L11.9890223,11.6950967 C11.9653036,11.8604403 11.9202724,12.0223464 11.8553037,12.1763463 L11.9068661,12.0525964 C11.8408662,12.2065963 11.7566475,12.3520024 11.6559288,12.485721 L11.7349913,12.3825961 C11.6346164,12.5108147 11.5194602,12.6263146 11.3912416,12.7263458 L11.4943665,12.6472834 C11.3603041,12.748002 11.214898,12.8322207 11.0612419,12.8982206 L11.184648,12.8466582 C11.0306482,12.9116269 10.8694296,12.9570018 10.7037422,12.9807206 L10.8408983,12.9600956 C10.5727736,12.9862206 10.3025863,12.9927518 10.0334303,12.9807206 L4.43031032,12.9807206 C4.3416229,12.9817518 4.25327923,12.9759081 4.16562306,12.9635331 L4.29968544,12.9841581 C4.13537309,12.9600956 3.97449823,12.9150644 3.82187337,12.8500957 L3.94562326,12.9016581 C3.79127965,12.8363457 3.64552978,12.752127 3.51249865,12.6507209 L3.61562355,12.7297833 C3.48740492,12.6294084 3.37190502,12.5142522 3.27187386,12.3860336 L3.35093629,12.4891585 C3.24781138,12.3568149 3.16324896,12.2114088 3.09999901,12.0560339 C3.09999901,12.0976276 3.13437398,12.1385338 3.14812397,12.1797838 C3.09003027,12.0233777 3.05084281,11.8607841 3.03124908,11.6950967 L3.03124908,11.8325966 C3.01371784,11.5637843 3.01371784,11.2939408 3.03124908,11.0247848 L3.03124908,5.42510234 C3.02609283,5.33710242 3.02609283,5.24875875 3.03124908,5.16041508 L3.03124908,5.29447746 C3.05221781,5.13085261 3.09278027,4.97066525 3.15156147,4.81666539 C3.15156147,4.85791535 3.1171865,4.89916531 3.10343651,4.94041528 C3.16737395,4.78572792 3.25159263,4.63997805 3.35437379,4.50729067 L3.27531136,4.61041557 C3.37534252,4.48219694 3.49084241,4.36669704 3.61906105,4.26666588 L3.51593614,4.34572831 C3.64827977,4.24294715 3.79402964,4.15872848 3.94906075,4.09479103 L3.82531086,4.14291599 C3.97827948,4.08550979 4.13743559,4.04632233 4.29968544,4.0260411 L4.16562306,4.0260411 C4.34402915,4.01400986 4.52346649,4.01400986 4.70187258,4.0260411 L8.06030707,4.0260411 C8.34115057,4.02432235 8.56871287,3.79813505 8.57249411,3.51729155 C8.57249411,3.23266681 8.34493182,3.00029202 8.06030707,2.99479202 L4.43718532,2.99479202 C3.53037363,2.99754202 2.69884312,3.49976032 2.27499975,4.30104085 C2.09556241,4.65097804 2.00103125,5.03872769 2,5.43197734 L2,11.5610343 C2.00103125,11.9755965 2.10621865,12.3836274 2.30593723,12.7469708 C2.74112434,13.5152513 3.55443611,13.9910009 4.43718532,13.9947822 L10.5628048,13.9947822 C11.9048036,13.9985634 12.9962089,12.9136894 12.9999901,11.5713468 L12.9999901,7.9344751 C12.9979276,7.6529441 12.7693341,7.42572555 12.4878031,7.42572555 C12.2048971,7.42572555 11.9742411,7.65191285 11.9687411,7.9344751 L11.9687411,11.2172847 Z" fill="#000000"></path>
                    </g>
                </g>
            </g>
        </g>
    </g>
</svg>