<?xml version="1.0" encoding="UTF-8"?>
<svg width="24px" height="24px" viewBox="0 0 24 24" version="1.1" xmlns="http://www.w3.org/2000/svg" xmlns:xlink="http://www.w3.org/1999/xlink">
    <!-- Generator: Sketch 52.3 (67297) - http://www.bohemiancoding.com/sketch -->
    <title>icon-instragram</title>
    <desc>Created with Sketch.</desc>
    <g id="Page-1" stroke="none" stroke-width="1" fill="none" fill-rule="evenodd">
        <g id="discussify_style-guide" transform="translate(-662.000000, -3515.000000)">
            <g id="iconography" transform="translate(342.000000, 3331.000000)">
                <g id="icons-24px" transform="translate(0.000000, 184.000000)">
                    <g id="icon-instragram" transform="translate(320.000000, 0.000000)">
                        <rect id="icon-instragram_BG" x="0" y="0" width="24" height="24"></rect>
                        <path d="M12,4 C9.82733333,4 9.55533333,4.00933333 8.70133333,4.048 C7.85,4.08666667 7.26866667,4.222 6.76,4.42 C6.234,4.62466667 5.78733333,4.898 5.34266667,5.34266667 C4.898,5.78733333 4.62466667,6.234 4.42,6.76 C4.222,7.26866667 4.08666667,7.85 4.048,8.70133333 C4.00933333,9.55533333 4,9.82733333 4,12 C4,14.1726667 4.00933333,14.4453333 4.048,15.298 C4.08666667,16.15 4.222,16.7313333 4.42,17.24 C4.62466667,17.766 4.898,18.212 5.34266667,18.6573333 C5.78733333,19.102 6.234,19.3753333 6.76,19.58 C7.26866667,19.778 7.85,19.9126667 8.70133333,19.952 C9.55533333,19.9906667 9.82733333,20 12,20 C14.1726667,20 14.4446667,19.9906667 15.2986667,19.952 C16.15,19.9126667 16.7313333,19.778 17.24,19.58 C17.766,19.3753333 18.2126667,19.102 18.6573333,18.6573333 C19.102,18.212 19.3753333,17.766 19.58,17.24 C19.778,16.7313333 19.9133333,16.15 19.952,15.298 C19.9906667,14.4453333 20,14.1726667 20,12 C20,9.82733333 19.9906667,9.55533333 19.952,8.70133333 C19.9133333,7.85 19.778,7.26866667 19.58,6.76 C19.3753333,6.234 19.102,5.78733333 18.6573333,5.34266667 C18.2126667,4.898 17.766,4.62466667 17.24,4.42 C16.7313333,4.222 16.15,4.08666667 15.2986667,4.048 C14.4446667,4.00933333 14.1726667,4 12,4 M12,5.44133333 C14.136,5.44133333 14.3886667,5.44933333 15.2326667,5.488 C16.0126667,5.524 16.436,5.654 16.718,5.764 C17.0913333,5.90866667 17.358,6.082 17.638,6.362 C17.918,6.642 18.0913333,6.90866667 18.236,7.282 C18.346,7.564 18.476,7.98733333 18.512,8.76733333 C18.5506667,9.61133333 18.5586667,9.864 18.5586667,12 C18.5586667,14.136 18.5506667,14.3893333 18.512,15.2326667 C18.476,16.0126667 18.346,16.436 18.236,16.718 C18.0913333,17.092 17.918,17.358 17.638,17.638 C17.358,17.918 17.0913333,18.0913333 16.718,18.236 C16.436,18.346 16.0126667,18.4766667 15.2326667,18.512 C14.3893333,18.55 14.1366667,18.5586667 12,18.5586667 C9.86333333,18.5586667 9.61066667,18.55 8.76733333,18.512 C7.98733333,18.4766667 7.564,18.346 7.282,18.236 C6.90866667,18.0913333 6.642,17.918 6.362,17.638 C6.082,17.358 5.90866667,17.092 5.764,16.718 C5.654,16.436 5.524,16.0126667 5.488,15.2326667 C5.44933333,14.3893333 5.44133333,14.136 5.44133333,12 C5.44133333,9.864 5.44933333,9.61133333 5.488,8.76733333 C5.524,7.98733333 5.654,7.564 5.764,7.282 C5.90866667,6.90866667 6.082,6.642 6.362,6.362 C6.642,6.082 6.90866667,5.90866667 7.282,5.764 C7.564,5.654 7.98733333,5.524 8.76733333,5.488 C9.61133333,5.44933333 9.864,5.44133333 12,5.44133333 Z M12.108,8 C9.83933333,8 8,9.83933333 8,12.108 C8,14.3766667 9.83933333,16.216 12.108,16.216 C14.3766667,16.216 16.216,14.3766667 16.216,12.108 C16.216,9.83933333 14.3766667,8 12.108,8 Z M12.108,14.7746667 C10.6353333,14.7746667 9.44133333,13.5806667 9.44133333,12.108 C9.44133333,10.6353333 10.6353333,9.44133333 12.108,9.44133333 C13.5806667,9.44133333 14.7746667,10.6353333 14.7746667,12.108 C14.7746667,13.5806667 13.5806667,14.7746667 12.108,14.7746667 Z M17.2533333,7.62666667 C17.2533333,7.09666667 16.8233333,6.66666667 16.2933333,6.66666667 C15.7633333,6.66666667 15.3333333,7.09666667 15.3333333,7.62666667 C15.3333333,8.15666667 15.7633333,8.58666667 16.2933333,8.58666667 C16.8233333,8.58666667 17.2533333,8.15666667 17.2533333,7.62666667 Z" fill="#000000"></path>
                    </g>
                </g>
            </g>
        </g>
    </g>
</svg>